name rise49.8558peak67.6521fall70.3087.mot
datacolumns 19
datarows 21
range 13.09661800000000 13.12995300000000
endheader
time	ground_force1_vx	ground_force1_vy	ground_force1_vz	ground_force1_px	ground_force1_py	ground_force1_pz	ground_force2_vx	ground_force2_vy	ground_force2_vz	ground_force2_px	ground_force2_py	ground_force2_pz	ground_torque1_x	ground_torque1_y	ground_torque1_z	ground_torque2_x	ground_torque2_y	ground_torque2_z	
13.09661800000000	13.41230800000000	703.27382399999999	43.48712000000000	0.30861500000000	0.00000000000000	0.11444800000000	0.00000000000000	0.00000000000000	0.00000000000000	0.00000000000000	0.00000000000000	0.00000000000000	0.00000000000000	23.79135000000000	0.00000000000000	0.00000000000000	0.00000000000000	0.00000000000000	
13.09828200000000	13.13913200000000	703.40144899999996	43.50610400000000	0.30786000000000	0.00000000000000	0.11445400000000	0.00000000000000	0.00000000000000	0.00000000000000	0.00000000000000	0.00000000000000	0.00000000000000	0.00000000000000	23.82210100000000	0.00000000000000	0.00000000000000	0.00000000000000	0.00000000000000	
13.09994800000000	12.86161600000000	703.55619899999999	43.53111400000000	0.30713300000000	0.00000000000000	0.11446000000000	0.00000000000000	0.00000000000000	0.00000000000000	0.00000000000000	0.00000000000000	0.00000000000000	0.00000000000000	23.85881100000000	0.00000000000000	0.00000000000000	0.00000000000000	0.00000000000000	
13.10162000000000	12.57931800000000	703.73686399999997	43.56176100000000	0.30643100000000	0.00000000000000	0.11446400000000	0.00000000000000	0.00000000000000	0.00000000000000	0.00000000000000	0.00000000000000	0.00000000000000	0.00000000000000	23.90125700000000	0.00000000000000	0.00000000000000	0.00000000000000	0.00000000000000	
13.10328100000000	12.29180200000000	703.94230800000003	43.59766100000000	0.30575400000000	0.00000000000000	0.11446700000000	0.00000000000000	0.00000000000000	0.00000000000000	0.00000000000000	0.00000000000000	0.00000000000000	0.00000000000000	23.94921900000000	0.00000000000000	0.00000000000000	0.00000000000000	0.00000000000000	
13.10494800000000	11.99863300000000	704.17147199999999	43.63843500000000	0.30510000000000	0.00000000000000	0.11447000000000	0.00000000000000	0.00000000000000	0.00000000000000	0.00000000000000	0.00000000000000	0.00000000000000	0.00000000000000	24.00247800000000	0.00000000000000	0.00000000000000	0.00000000000000	0.00000000000000	
13.10661300000000	11.69938400000000	704.42337899999995	43.68371200000000	0.30446800000000	0.00000000000000	0.11447100000000	0.00000000000000	0.00000000000000	0.00000000000000	0.00000000000000	0.00000000000000	0.00000000000000	0.00000000000000	24.06081900000000	0.00000000000000	0.00000000000000	0.00000000000000	0.00000000000000	
13.10828600000000	11.39363300000000	704.69714299999998	43.73312500000000	0.30385500000000	0.00000000000000	0.11447100000000	0.00000000000000	0.00000000000000	0.00000000000000	0.00000000000000	0.00000000000000	0.00000000000000	0.00000000000000	24.12403100000000	0.00000000000000	0.00000000000000	0.00000000000000	0.00000000000000	
13.10995200000000	11.08096400000000	704.99196800000004	43.78631800000000	0.30326100000000	0.00000000000000	0.11447000000000	0.00000000000000	0.00000000000000	0.00000000000000	0.00000000000000	0.00000000000000	0.00000000000000	0.00000000000000	24.19190600000000	0.00000000000000	0.00000000000000	0.00000000000000	0.00000000000000	
13.11161400000000	10.76097200000000	705.30715699999996	43.84294400000000	0.30268300000000	0.00000000000000	0.11446700000000	0.00000000000000	0.00000000000000	0.00000000000000	0.00000000000000	0.00000000000000	0.00000000000000	0.00000000000000	24.26423900000000	0.00000000000000	0.00000000000000	0.00000000000000	0.00000000000000	
13.11328700000000	10.43326100000000	705.64211100000000	43.90266600000000	0.30212000000000	0.00000000000000	0.11446400000000	0.00000000000000	0.00000000000000	0.00000000000000	0.00000000000000	0.00000000000000	0.00000000000000	0.00000000000000	24.34083200000000	0.00000000000000	0.00000000000000	0.00000000000000	0.00000000000000	
13.11495500000000	10.09744500000000	705.99633600000004	43.96515700000000	0.30156900000000	0.00000000000000	0.11446000000000	0.00000000000000	0.00000000000000	0.00000000000000	0.00000000000000	0.00000000000000	0.00000000000000	0.00000000000000	24.42149000000000	0.00000000000000	0.00000000000000	0.00000000000000	0.00000000000000	
13.11661300000000	9.75315100000000	706.36944200000005	44.03010600000000	0.30103000000000	0.00000000000000	0.11445500000000	0.00000000000000	0.00000000000000	0.00000000000000	0.00000000000000	0.00000000000000	0.00000000000000	0.00000000000000	24.50602200000000	0.00000000000000	0.00000000000000	0.00000000000000	0.00000000000000	
13.11828700000000	9.40002000000000	706.76114500000006	44.09721100000000	0.30049900000000	0.00000000000000	0.11444900000000	0.00000000000000	0.00000000000000	0.00000000000000	0.00000000000000	0.00000000000000	0.00000000000000	0.00000000000000	24.59424500000000	0.00000000000000	0.00000000000000	0.00000000000000	0.00000000000000	
13.11995400000000	9.03770700000000	707.17126800000005	44.16618800000000	0.29997500000000	0.00000000000000	0.11444200000000	0.00000000000000	0.00000000000000	0.00000000000000	0.00000000000000	0.00000000000000	0.00000000000000	0.00000000000000	24.68597900000000	0.00000000000000	0.00000000000000	0.00000000000000	0.00000000000000	
13.12161700000000	8.66588300000000	707.59974299999999	44.23676500000000	0.29945700000000	0.00000000000000	0.11443400000000	0.00000000000000	0.00000000000000	0.00000000000000	0.00000000000000	0.00000000000000	0.00000000000000	0.00000000000000	24.78105000000000	0.00000000000000	0.00000000000000	0.00000000000000	0.00000000000000	
13.12328100000000	8.28423500000000	708.04660999999999	44.30868800000000	0.29894100000000	0.00000000000000	0.11442600000000	0.00000000000000	0.00000000000000	0.00000000000000	0.00000000000000	0.00000000000000	0.00000000000000	0.00000000000000	24.87929100000000	0.00000000000000	0.00000000000000	0.00000000000000	0.00000000000000	
13.12495100000000	7.89247000000000	708.51201300000002	44.38171600000000	0.29842700000000	0.00000000000000	0.11441700000000	0.00000000000000	0.00000000000000	0.00000000000000	0.00000000000000	0.00000000000000	0.00000000000000	0.00000000000000	24.98053800000000	0.00000000000000	0.00000000000000	0.00000000000000	0.00000000000000	
13.12661700000000	7.49031300000000	708.99620300000004	44.45563000000000	0.29791300000000	0.00000000000000	0.11440700000000	0.00000000000000	0.00000000000000	0.00000000000000	0.00000000000000	0.00000000000000	0.00000000000000	0.00000000000000	25.08463500000000	0.00000000000000	0.00000000000000	0.00000000000000	0.00000000000000	
13.12828800000000	7.07751100000000	709.49953400000004	44.53022400000000	0.29739500000000	0.00000000000000	0.11439600000000	0.00000000000000	0.00000000000000	0.00000000000000	0.00000000000000	0.00000000000000	0.00000000000000	0.00000000000000	25.19143300000000	0.00000000000000	0.00000000000000	0.00000000000000	0.00000000000000	
13.12995300000000	6.65383100000000	710.02245800000003	44.60531300000000	0.29687400000000	0.00000000000000	0.11438500000000	0.00000000000000	0.00000000000000	0.00000000000000	0.00000000000000	0.00000000000000	0.00000000000000	0.00000000000000	25.30078600000000	0.00000000000000	0.00000000000000	0.00000000000000	0.00000000000000	
